:FULLY-SPECIFIED
:FORCE-ALL-JOINTS-BE-3DOF
:DEGREES
146
root 8.62713 16.2401 -16.5154 6.79789 8.8592 1.75556
lfemur 10.1724 5.57891 -17.6634
ltibia 26.3378 0 0
lfoot 1.06595 3.68363 0
ltoes -12.5775 0 0
rfemur -37.1803 4.55969 16.2888
rtibia 32.772 0 0
rfoot -14.787 -5.10715 0
rtoes -14.7584 0 0
lowerback -6.48118 -3.23803 -2.89231
upperback -1.51031 -4.14881 2.98751
thorax 2.50514 -2.10906 4.34217
lowerneck -19.7017 -6.18179 -14.1314
upperneck 17.7173 -7.28058 13.1373
head 9.92718 -2.9506 5.93649
lclavicle 2.01951e-014 -8.33614e-015 0
lhumerus -36.4189 -9.18087 92.319
lradius 25.4072 0 0
lwrist -3.52185 0 0
lhand -6.50253 -20.8538 0
lfingers 7.12502 0 0
lthumb 19.3467 8.17244 0
rclavicle 2.01951e-014 -8.33614e-015 0
rhumerus -46.7383 6.10629 -81.7901
rradius 31.2954 0 0
rwrist -17.5157 0 0
rhand -29.6435 -25.4554 0
rfingers 7.12502 0 0
rthumb -2.97315 -55.4144 0
147
root 8.5997 16.2513 -16.3552 6.86146 8.96199 1.58318
lfemur 9.78879 5.79508 -17.2026
ltibia 27.592 0 0
lfoot 1.84171 3.87831 0
ltoes -12.889 0 0
rfemur -36.93 4.25736 16.8229
rtibia 33.0821 0 0
rfoot -14.3461 -4.71872 0
rtoes -14.4763 0 0
lowerback -6.39288 -3.21109 -2.72734
upperback -1.52627 -4.12876 3.03077
thorax 2.42853 -2.0959 4.30197
lowerneck -19.714 -6.21767 -14.1722
upperneck 17.5586 -7.3269 13.2384
head 9.88628 -2.96306 5.96885
lclavicle 2.35428e-014 -8.69524e-015 0
lhumerus -36.7297 -8.37548 92.1011
lradius 24.7019 0 0
lwrist -4.17978 0 0
lhand -6.27303 -20.689 0
lfingers 7.12502 0 0
lthumb 19.5675 8.31667 0
rclavicle 2.35428e-014 -8.69524e-015 0
rhumerus -46.7149 6.09103 -81.7486
rradius 31.188 0 0
rwrist -17.4907 0 0
rhand -29.6425 -25.5724 0
rfingers 7.12502 0 0
rthumb -2.97224 -55.5314 0
148
root 8.57227 16.2624 -16.195 6.92503 9.06479 1.41081
lfemur 9.4052 6.01126 -16.7418
ltibia 28.8462 0 0
lfoot 2.61746 4.07299 0
ltoes -13.2005 0 0
rfemur -36.6797 3.95502 17.357
rtibia 33.3921 0 0
rfoot -13.9052 -4.3303 0
rtoes -14.1942 0 0
lowerback -6.30459 -3.18414 -2.56237
upperback -1.54224 -4.10871 3.07404
thorax 2.35192 -2.08275 4.26176
lowerneck -19.7263 -6.25355 -14.2131
upperneck 17.4 -7.37322 13.3396
head 9.84538 -2.97551 6.0012
lclavicle 2.68905e-014 -9.05434e-015 0
lhumerus -37.0404 -7.57008 91.8831
lradius 23.9966 0 0
lwrist -4.83772 0 0
lhand -6.04353 -20.5242 0
lfingers 7.12502 0 0
lthumb 19.7883 8.4609 0
rclavicle 2.68905e-014 -9.05434e-015 0
rhumerus -46.6914 6.07576 -81.7072
rradius 31.0806 0 0
rwrist -17.4656 0 0
rhand -29.6416 -25.6894 0
rfingers 7.12502 0 0
rthumb -2.97133 -55.6484 0
149
root 8.54484 16.2736 -16.0349 6.9886 9.16758 1.23843
lfemur 9.02161 6.22744 -16.281
ltibia 30.1003 0 0
lfoot 3.39322 4.26766 0
ltoes -13.5121 0 0
rfemur -36.4293 3.65268 17.8911
rtibia 33.7021 0 0
rfoot -13.4643 -3.94188 0
rtoes -13.9122 0 0
lowerback -6.21629 -3.15719 -2.39739
upperback -1.55821 -4.08867 3.11731
thorax 2.2753 -2.0696 4.22155
lowerneck -19.7386 -6.28942 -14.2539
upperneck 17.2413 -7.41954 13.4408
head 9.80448 -2.98797 6.03355
lclavicle 3.02381e-014 -9.41343e-015 0
lhumerus -37.3511 -6.76469 91.6652
lradius 23.2913 0 0
lwrist -5.49565 0 0
lhand -5.81403 -20.3594 0
lfingers 7.12502 0 0
lthumb 20.0091 8.60513 0
rclavicle 3.02381e-014 -9.41343e-015 0
rhumerus -46.668 6.06049 -81.6658
rradius 30.9731 0 0
rwrist -17.4406 0 0
rhand -29.6407 -25.8063 0
rfingers 7.12502 0 0
rthumb -2.97043 -55.7654 0
150
root 8.51741 16.2848 -15.8747 7.05217 9.27038 1.06606
lfemur 8.63802 6.44362 -15.8201
ltibia 31.3545 0 0
lfoot 4.16897 4.46234 0
ltoes -13.8236 0 0
rfemur -36.179 3.35034 18.4252
rtibia 34.0122 0 0
rfoot -13.0234 -3.55346 0
rtoes -13.6301 0 0
lowerback -6.128 -3.13024 -2.23242
upperback -1.57417 -4.06862 3.16057
thorax 2.19869 -2.05644 4.18134
lowerneck -19.7509 -6.3253 -14.2948
upperneck 17.0826 -7.46586 13.542
head 9.76358 -3.00043 6.0659
lclavicle 3.35858e-014 -9.77253e-015 0
lhumerus -37.6619 -5.95929 91.4472
lradius 22.586 0 0
lwrist -6.15359 0 0
lhand -5.58453 -20.1946 0
lfingers 7.12502 0 0
lthumb 20.2299 8.74936 0
rclavicle 3.35858e-014 -9.77253e-015 0
rhumerus -46.6445 6.04522 -81.6244
rradius 30.8657 0 0
rwrist -17.4156 0 0
rhand -29.6397 -25.9233 0
rfingers 7.12502 0 0
rthumb -2.96952 -55.8824 0
151
root 8.48999 16.2959 -15.7145 7.11574 9.37317 0.893685
lfemur 8.25443 6.65979 -15.3593
ltibia 32.6087 0 0
lfoot 4.94473 4.65702 0
ltoes -14.1352 0 0
rfemur -35.9287 3.048 18.9593
rtibia 34.3222 0 0
rfoot -12.5825 -3.16504 0
rtoes -13.348 0 0
lowerback -6.03971 -3.10329 -2.06745
upperback -1.59014 -4.04857 3.20384
thorax 2.12208 -2.04329 4.14114
lowerneck -19.7631 -6.36118 -14.3357
upperneck 16.924 -7.51218 13.6432
head 9.72267 -3.01288 6.09826
lclavicle 3.69335e-014 -1.01316e-014 0
lhumerus -37.9726 -5.15389 91.2293
lradius 21.8807 0 0
lwrist -6.81152 0 0
lhand -5.35503 -20.0298 0
lfingers 7.12502 0 0
lthumb 20.4507 8.8936 0
rclavicle 3.69335e-014 -1.01316e-014 0
rhumerus -46.621 6.02995 -81.583
rradius 30.7583 0 0
rwrist -17.3905 0 0
rhand -29.6388 -26.0403 0
rfingers 7.12502 0 0
rthumb -2.96861 -55.9994 0
152
root 8.46256 16.3071 -15.5544 7.17931 9.47597 0.721311
lfemur 7.87084 6.87597 -14.8985
ltibia 33.8629 0 0
lfoot 5.72048 4.85169 0
ltoes -14.4467 0 0
rfemur -35.6784 2.74566 19.4935
rtibia 34.6322 0 0
rfoot -12.1416 -2.77662 0
rtoes -13.0659 0 0
lowerback -5.95141 -3.07634 -1.90248
upperback -1.60611 -4.02852 3.24711
thorax 2.04547 -2.03014 4.10093
lowerneck -19.7754 -6.39706 -14.3765
upperneck 16.7653 -7.5585 13.7444
head 9.68177 -3.02534 6.13061
lclavicle 4.02812e-014 -1.04907e-014 0
lhumerus -38.2833 -4.3485 91.0113
lradius 21.1754 0 0
lwrist -7.46946 0 0
lhand -5.12553 -19.865 0
lfingers 7.12502 0 0
lthumb 20.6715 9.03783 0
rclavicle 4.02812e-014 -1.04907e-014 0
rhumerus -46.5976 6.01468 -81.5416
rradius 30.6509 0 0
rwrist -17.3655 0 0
rhand -29.6379 -26.1573 0
rfingers 7.12502 0 0
rthumb -2.9677 -56.1164 0
153
root 8.43513 16.3183 -15.3942 7.24289 9.57876 0.548936
lfemur 7.48724 7.09215 -14.4377
ltibia 35.1171 0 0
lfoot 6.49624 5.04637 0
ltoes -14.7583 0 0
rfemur -35.4281 2.44333 20.0276
rtibia 34.9423 0 0
rfoot -11.7008 -2.38819 0
rtoes -12.7838 0 0
lowerback -5.86312 -3.0494 -1.73751
upperback -1.62207 -4.00847 3.29037
thorax 1.96886 -2.01698 4.06072
lowerneck -19.7877 -6.43294 -14.4174
upperneck 16.6066 -7.60482 13.8455
head 9.64087 -3.03779 6.16296
lclavicle 4.36289e-014 -1.08498e-014 0
lhumerus -38.5941 -3.5431 90.7934
lradius 20.4702 0 0
lwrist -8.12739 0 0
lhand -4.89604 -19.7002 0
lfingers 7.12502 0 0
lthumb 20.8922 9.18206 0
rclavicle 4.36289e-014 -1.08498e-014 0
rhumerus -46.5741 5.99942 -81.5001
rradius 30.5435 0 0
rwrist -17.3405 0 0
rhand -29.6369 -26.2743 0
rfingers 7.12502 0 0
rthumb -2.96679 -56.2334 0
154
root 8.4077 16.3295 -15.234 7.30646 9.68156 0.376562
lfemur 7.10365 7.30833 -13.9768
ltibia 36.3712 0 0
lfoot 7.27199 5.24105 0
ltoes -15.0698 0 0
rfemur -35.1777 2.14099 20.5617
rtibia 35.2523 0 0
rfoot -11.2599 -1.99977 0
rtoes -12.5017 0 0
lowerback -5.77483 -3.02245 -1.57253
upperback -1.63804 -3.98842 3.33364
thorax 1.89224 -2.00383 4.02051
lowerneck -19.8 -6.46882 -14.4583
upperneck 16.4479 -7.65114 13.9467
head 9.59997 -3.05025 6.19531
lclavicle 4.69765e-014 -1.12089e-014 0
lhumerus -38.9048 -2.7377 90.5754
lradius 19.7649 0 0
lwrist -8.78533 0 0
lhand -4.66654 -19.5354 0
lfingers 7.12502 0 0
lthumb 21.113 9.32629 0
rclavicle 4.69765e-014 -1.12089e-014 0
rhumerus -46.5506 5.98415 -81.4587
rradius 30.4361 0 0
rwrist -17.3155 0 0
rhand -29.636 -26.3912 0
rfingers 7.12502 0 0
rthumb -2.96589 -56.3504 0
155
root 8.38027 16.3406 -15.0739 7.37003 9.78435 0.204188
lfemur 6.72006 7.5245 -13.516
ltibia 37.6254 0 0
lfoot 8.04775 5.43572 0
ltoes -15.3814 0 0
rfemur -34.9274 1.83865 21.0958
rtibia 35.5624 0 0
rfoot -10.819 -1.61135 0
rtoes -12.2196 0 0
lowerback -5.68653 -2.9955 -1.40756
upperback -1.654 -3.96837 3.3769
thorax 1.81563 -1.99067 3.98031
lowerneck -19.8123 -6.5047 -14.4991
upperneck 16.2893 -7.69746 14.0479
head 9.55907 -3.0627 6.22767
lclavicle 5.03242e-014 -1.1568e-014 0
lhumerus -39.2156 -1.93231 90.3575
lradius 19.0596 0 0
lwrist -9.44326 0 0
lhand -4.43704 -19.3706 0
lfingers 7.12502 0 0
lthumb 21.3338 9.47052 0
rclavicle 5.03242e-014 -1.1568e-014 0
rhumerus -46.5272 5.96888 -81.4173
rradius 30.3287 0 0
rwrist -17.2904 0 0
rhand -29.635 -26.5082 0
rfingers 7.12502 0 0
rthumb -2.96498 -56.4674 0
